:SAMPLES-PER-SECOND 30
:FULLY-SPECIFIED
:DEGREES
588
root  -32.5136 35.0423 4.29177 -168.955 83.1065 -176.83
RightUpLeg  -3.68611 -8.39599 0.31318
RightLeg  1.81944 10.7064 -0.343949
RightFoot  5.24204 -0.0170948 1.10417
RightToes  -33.7559 -0.171295 -0.278095
Spine  -3.03565 0.714325 -0.554426
Spine1  -5.87955 1.70273 -0.44126
HEad  -58.7886 -9.99258 15.4652
LeftShoulder1  -1.94126e-019 -3.10601e-018 -2.51263e-017
LeftArm  29.5959 -1.34173 -78.0721
LeftForeArm  22.0248 -70.6019 -32.4441
LeftHand  0.196596 -0.661735 -3.72651
RightShoulder  -4.96962e-017 0 -2.36833e-017
RightArm  -0.992397 -3.72521 76.1624
RightForeArm  55.8152 25.4227 2.68022
RightHand  -0.48491 0.768087 -9.24536
LeftUpLeg  -4.14139 3.63998 0.892935
LeftLeg  1.41333 15.0407 -0.589165
LeftFoot  7.54755 -0.138298 2.22076
LeftToes  -18.9476 1.89912e-006 4.45198e-008
589
root  -32.4914 35.0376 4.29698 -168.78 83.3763 -176.719
RightUpLeg  -3.59048 -8.32133 0.3073
RightLeg  1.49855 10.8867 -0.410392
RightFoot  5.30146 -0.0198399 1.12438
RightToes  -33.6345 -0.171211 -0.278304
Spine  -3.00598 0.678452 -0.473317
Spine1  -5.8427 1.60679 -0.278105
HEad  -59.3941 -9.16821 15.7849
LeftShoulder1  -1.94126e-019 -3.10601e-018 -2.51263e-017
LeftArm  22.7311 2.28877 -77.2216
LeftForeArm  14.4385 -62.9061 -21.4198
LeftHand  0.0177344 1.78891 -0.902984
RightShoulder  -4.96962e-017 0 -2.36833e-017
RightArm  -3.41227 -5.34658 75.6766
RightForeArm  55.2544 24.7975 2.5771
RightHand  -0.470238 0.506148 -9.34408
LeftUpLeg  -4.15281 3.89229 0.878388
LeftLeg  1.44492 15.0731 -0.58218
LeftFoot  7.46341 -0.135732 2.19407
LeftToes  -18.9807 1.89912e-006 4.45198e-008
590
root  -32.4695 35.0303 4.30327 -168.662 83.5953 -176.775
RightUpLeg  -3.59642 -8.29157 0.303376
RightLeg  1.17672 11.0815 -0.479637
RightFoot  5.39695 -0.023361 1.15409
RightToes  -33.7281 -0.171219 -0.278511
Spine  -2.96301 0.598444 -0.426844
Spine1  -5.79636 1.41486 -0.183725
HEad  -59.3731 -8.59357 15.3794
LeftShoulder1  -1.94126e-019 -3.10601e-018 -2.51263e-017
LeftArm  15.7408 5.95456 -76.325
LeftForeArm  10.8085 -55.2531 -15.5372
LeftHand  -0.0445819 3.89263 1.9428
RightShoulder  -4.96962e-017 0 -2.36833e-017
RightArm  -5.94531 -7.01086 75.312
RightForeArm  54.6977 23.2838 2.36526
RightHand  -0.445962 -0.0240086 -9.69139
LeftUpLeg  -4.24899 4.04268 0.848202
LeftLeg  1.41621 15.1512 -0.592634
LeftFoot  7.40577 -0.133681 2.18066
LeftToes  -18.8838 1.89912e-006 4.45198e-008
591
root  -32.4436 35.0227 4.31619 -168.239 83.8452 -176.53
RightUpLeg  -3.64492 -8.22758 0.343707
RightLeg  0.928019 11.2564 -0.535785
RightFoot  5.48107 -0.0268099 1.18119
RightToes  -33.8526 -0.17133 -0.278715
Spine  -2.91392 0.514928 -0.363567
Spine1  -5.74293 1.21282 -0.0588717
HEad  -59.7914 -7.90736 15.4223
LeftShoulder1  -1.94126e-019 -3.10601e-018 -2.51263e-017
LeftArm  7.68171 9.19788 -75.8289
LeftForeArm  10.4109 -46.1783 -10.9948
LeftHand  -0.0729314 3.61704 3.68441
RightShoulder  -4.96962e-017 0 -2.36833e-017
RightArm  -8.20421 -8.65584 74.7725
RightForeArm  54.3098 20.8797 2.11149
RightHand  -0.448342 -0.0535766 -9.79412
LeftUpLeg  -4.31265 4.16243 0.86165
LeftLeg  1.34168 15.2604 -0.616441
LeftFoot  7.36057 -0.131637 2.17529
LeftToes  -18.9389 1.89912e-006 4.45198e-008
592
root  -32.4478 35.0156 4.31294 -167.954 83.7572 -176.439
RightUpLeg  -3.78693 -8.62154 0.375009
RightLeg  0.818249 11.5823 -0.573136
RightFoot  5.51017 -0.030719 1.21325
RightToes  -33.9329 -0.17192 -0.278918
Spine  -2.85744 0.324393 -0.286516
Spine1  -5.67806 0.797106 0.107083
HEad  -60.1348 -7.12974 15.323
LeftShoulder1  -1.94126e-019 -3.10601e-018 -2.51263e-017
LeftArm  -0.385063 11.5432 -75.416
LeftForeArm  13.4898 -35.6036 -7.24783
LeftHand  -0.135844 2.72634 5.4408
RightShoulder  -4.96962e-017 0 -2.36833e-017
RightArm  -11.1667 -9.96643 74.2905
RightForeArm  55.6525 17.0461 1.80012
RightHand  -0.438903 -0.432153 -10.0858
LeftUpLeg  -4.53377 3.84525 0.857586
LeftLeg  1.36159 15.5181 -0.62126
LeftFoot  7.34487 -0.130809 2.19938
LeftToes  -19.0878 1.89912e-006 4.45198e-008
593
root  -32.417 34.993 4.32656 -167.145 84.0995 -175.831
RightUpLeg  -4.19337 -8.45738 0.437849
RightLeg  1.25411 11.7765 -0.493323
RightFoot  5.27741 -0.0301825 1.18019
RightToes  -33.9489 -0.172325 -0.279119
Spine  -2.78433 0.295239 -0.234038
Spine1  -5.57133 0.719561 0.220366
HEad  -60.5278 -6.36048 15.2029
LeftShoulder1  -1.94126e-019 -3.10601e-018 -2.51263e-017
LeftArm  -7.5795 13.6077 -74.4257
LeftForeArm  17.3113 -25.1422 -4.63261
LeftHand  -0.176168 2.91637 7.78354
RightShoulder  -4.96962e-017 0 -2.36833e-017
RightArm  -15.5842 -11.0904 73.827
RightForeArm  58.0005 12.21 1.50331
RightHand  -0.426275 -0.616191 -10.3537
LeftUpLeg  -4.77455 4.06121 0.887968
LeftLeg  1.64916 15.6555 -0.548954
LeftFoot  7.09349 -0.122799 2.14258
LeftToes  -19.0083 1.89912e-006 4.45198e-008
594
root  -32.3394 34.9397 4.36439 -165.693 84.8393 -174.63
RightUpLeg  -4.89247 -7.6574 0.535996
RightLeg  2.25953 11.7204 -0.286334
RightFoot  4.73769 -0.023574 1.05879
RightToes  -33.9782 -0.172688 -0.279316
Spine  -2.71046 0.470774 -0.18821
Spine1  -5.47024 1.09237 0.25755
HEad  -60.9927 -5.70922 15.234
LeftShoulder1  -1.94126e-019 -3.10601e-018 -2.51263e-017
LeftArm  -14.5781 15.5034 -72.9027
LeftForeArm  23.1805 -14.6431 -2.6341
LeftHand  -0.16124 3.73415 10.473
RightShoulder  -4.96962e-017 0 -2.36833e-017
RightArm  -20.4718 -13.1123 73.3222
RightForeArm  60.4498 10.0048 1.53085
RightHand  -0.396073 -1.18227 -10.8497
LeftUpLeg  -5.19478 5.19049 0.950669
LeftLeg  2.4685 15.2386 -0.319289
LeftFoot  6.55252 -0.101365 1.93218
LeftToes  -19.1684 1.89912e-006 4.45198e-008
595
root  -32.2939 34.8817 4.37547 -164.852 85.0906 -174.008
RightUpLeg  -5.58192 -7.43732 0.587824
RightLeg  3.33244 11.7646 -0.0683813
RightFoot  4.16838 -0.0171926 0.938977
RightToes  -33.9783 -0.173013 -0.279512
Spine  -2.65082 0.484861 -0.156891
Spine1  -5.38051 1.11841 0.284991
HEad  -61.5339 -5.2195 15.2411
LeftShoulder1  -1.94126e-019 -3.10601e-018 -2.51263e-017
LeftArm  -18.444 17.8348 -70.8636
LeftForeArm  27.6226 -5.10952 -0.901381
LeftHand  -0.098925 4.62433 13.0362
RightShoulder  -4.96962e-017 0 -2.36833e-017
RightArm  -24.9753 -15.2668 72.8801
RightForeArm  62.0484 8.13319 1.37021
RightHand  -0.355999 -1.81309 -11.3833
LeftUpLeg  -5.82689 5.44761 0.972055
LeftLeg  3.56752 15.2484 -0.0305472
LeftFoot  5.95419 -0.0832789 1.76276
LeftToes  -19.3288 1.89912e-006 4.45198e-008
